# xmcd
#
# Track frame offsets:
#	150
#	17286
#	39685
#	57240
#	75145
#	92239
#	115860
#	133263
#	145599
#	165748
#	182064
#	200518
#	222644
#
# Disc length: 3251 seconds
#
# Revision: 1
# Processed by: cddbd v1.5.2PL0 Copyright (c) Steve Scherf et al.
# Submitted via: audiograbber 1.83.01
#
DISCID=b00cb10d
DTITLE=Mitchell, Zed - Springtime In Paris
DYEAR=2007
DGENRE=Blues
TTITLE0=Money For My Blues
TTITLE1=Springtime In Paris
TTITLE2=Lonely Just Like Me
TTITLE3=Maybe
TTITLE4=Good Lookin' Man
TTITLE5=I'm A River
TTITLE6=Gonna Keep You Satisfied
TTITLE7=She Don't Love Me Anymore
TTITLE8=Lonely Man
TTITLE9=Fool Forever
TTITLE10=King Of The Blues
TTITLE11=Dreamer
TTITLE12=What's Life
EXTD=
EXTT0=
EXTT1=
EXTT2=
EXTT3=
EXTT4=
EXTT5=
EXTT6=
EXTT7=
EXTT8=
EXTT9=
EXTT10=
EXTT11=
EXTT12=
PLAYORDER=
